<svg xmlns="http://www.w3.org/2000/svg" viewBox="0 0 360 210" width="360" height="210" role="img" aria-label="Differentiable and volume rendering">
<rect x="1" y="1" width="358" height="208" rx="14" fill="#f8fafc" stroke="#cbd5e1"/>
<g font-family="Segoe UI, Helvetica, Arial, sans-serif" fill="#334155" font-size="12">
<defs><marker id="a" viewBox="0 0 10 10" refX="8" refY="5" markerWidth="7" markerHeight="7" orient="auto"><path d="M0 0L10 5L0 10z" fill="#475569"/></marker></defs>
<rect x="112" y="60" width="160" height="62" rx="8" fill="#e0f2fe" fill-opacity=".6" stroke="#0ea5e9" stroke-dasharray="4 3"/>
<circle cx="36" cy="112" r="8" fill="#334155"/><text x="36" y="136" text-anchor="middle" font-size="11">camera</text>
<line x1="44" y1="110" x2="300" y2="74" stroke="#334155" stroke-width="2" marker-end="url(#a)"/><circle cx="130" cy="96" r="4" fill="#0ea5e9" fill-opacity="0.2"/><circle cx="160" cy="92" r="4" fill="#0ea5e9" fill-opacity="0.5"/><circle cx="190" cy="88" r="4" fill="#0ea5e9" fill-opacity="0.9"/><circle cx="220" cy="84" r="4" fill="#0ea5e9" fill-opacity="0.6"/><circle cx="250" cy="80" r="4" fill="#0ea5e9" fill-opacity="0.25"/>
<rect x="302" y="50" width="12" height="56" rx="2" fill="#334155"/><text x="308" y="124" text-anchor="middle" font-size="11">pixel</text>
<path d="M300 150 C230 175 120 175 60 150" fill="none" stroke="#e11d48" stroke-width="2" stroke-dasharray="5 4" marker-end="url(#a)"/>
<text x="180" y="168" text-anchor="middle" fill="#e11d48" font-size="11">gradients flow back</text>
<text x="180" y="30" text-anchor="middle" font-weight="600">composite color and density along each ray</text>
<text x="180" y="198" text-anchor="middle" font-size="11" fill="#64748b">the render is differentiable end to end</text>
</g></svg>
