<svg xmlns="http://www.w3.org/2000/svg" viewBox="0 0 480 270" width="480" height="270" role="img" aria-label="Medical Imaging">
<defs>
<linearGradient id="bg" x1="0" y1="0" x2="1" y2="1"><stop offset="0" stop-color="#f8fafc"/><stop offset="1" stop-color="#eef2ff"/></linearGradient>
<linearGradient id="acc" x1="0" y1="0" x2="1" y2="0"><stop offset="0" stop-color="#0ea5e9"/><stop offset="1" stop-color="#6366f1"/></linearGradient>
<linearGradient id="blk" x1="0" y1="0" x2="1" y2="1"><stop offset="0" stop-color="#6366f1"/><stop offset="1" stop-color="#0ea5e9"/></linearGradient>
<marker id="ar" viewBox="0 0 10 10" refX="8" refY="5" markerWidth="7" markerHeight="7" orient="auto"><path d="M0 0L10 5L0 10z" fill="#475569"/></marker>
</defs>
<rect x="1" y="1" width="478" height="268" rx="16" fill="url(#bg)" stroke="#cbd5e1"/>
<rect x="24" y="22" width="26" height="4" rx="2" fill="url(#acc)"/>
<g font-family="Segoe UI, Helvetica, Arial, sans-serif">
<text x="24" y="46" font-size="17" font-weight="700" fill="#0f172a">Medical Imaging</text>

<text x="102" y="76" text-anchor="middle" font-size="11" fill="#64748b">CT volume</text>
<polygon points="40,176 120,176 146,150 66,150" fill="#e0f2fe" stroke="#0284c7" stroke-width="1.3" stroke-linejoin="round"/><polygon points="46,164 126,164 152,138 72,138" fill="#e0f2fe" stroke="#0284c7" stroke-width="1.3" stroke-linejoin="round"/><polygon points="52,152 132,152 158,126 78,126" fill="#e0f2fe" stroke="#0284c7" stroke-width="1.3" stroke-linejoin="round"/><polygon points="58,140 138,140 164,114 84,114" fill="#e0f2fe" stroke="#0284c7" stroke-width="1.3" stroke-linejoin="round"/><polygon points="64,128 144,128 170,102 90,102" fill="#bae6fd" stroke="#0284c7" stroke-width="1.3" stroke-linejoin="round"/><ellipse cx="117" cy="118" rx="16" ry="6" fill="#7dd3fc" stroke="#0284c7"/>
<line x1="196" y1="144" x2="270" y2="144" stroke="#475569" stroke-width="2" marker-end="url(#ar)"/>
<text x="233" y="132" text-anchor="middle" font-size="10.5" fill="#64748b">project (DRR)</text>
<rect x="296" y="64" width="152" height="156" rx="12" fill="#0f172a"/>
<ellipse cx="344" cy="150" rx="30" ry="48" fill="#94a3b8" fill-opacity=".55"/>
<ellipse cx="400" cy="150" rx="30" ry="48" fill="#94a3b8" fill-opacity=".55"/>
<rect x="368" y="84" width="8" height="120" rx="4" fill="#cbd5e1" fill-opacity=".7"/>
<path d="M340 92 L370 84 L402 92" fill="none" stroke="#e2e8f0" stroke-opacity=".6" stroke-width="3" stroke-linecap="round"/>
<path d="M372 98 Q342 104 322 122" fill="none" stroke="#e2e8f0" stroke-opacity=".55" stroke-width="2.4" stroke-linecap="round"/><path d="M372 98 Q402 104 422 122" fill="none" stroke="#e2e8f0" stroke-opacity=".55" stroke-width="2.4" stroke-linecap="round"/><path d="M372 113 Q342 119 322 137" fill="none" stroke="#e2e8f0" stroke-opacity=".55" stroke-width="2.4" stroke-linecap="round"/><path d="M372 113 Q402 119 422 137" fill="none" stroke="#e2e8f0" stroke-opacity=".55" stroke-width="2.4" stroke-linecap="round"/><path d="M372 128 Q342 134 322 152" fill="none" stroke="#e2e8f0" stroke-opacity=".55" stroke-width="2.4" stroke-linecap="round"/><path d="M372 128 Q402 134 422 152" fill="none" stroke="#e2e8f0" stroke-opacity=".55" stroke-width="2.4" stroke-linecap="round"/><path d="M372 143 Q342 149 322 167" fill="none" stroke="#e2e8f0" stroke-opacity=".55" stroke-width="2.4" stroke-linecap="round"/><path d="M372 143 Q402 149 422 167" fill="none" stroke="#e2e8f0" stroke-opacity=".55" stroke-width="2.4" stroke-linecap="round"/><path d="M372 158 Q342 164 322 182" fill="none" stroke="#e2e8f0" stroke-opacity=".55" stroke-width="2.4" stroke-linecap="round"/><path d="M372 158 Q402 164 422 182" fill="none" stroke="#e2e8f0" stroke-opacity=".55" stroke-width="2.4" stroke-linecap="round"/><path d="M372 173 Q342 179 322 197" fill="none" stroke="#e2e8f0" stroke-opacity=".55" stroke-width="2.4" stroke-linecap="round"/><path d="M372 173 Q402 179 422 197" fill="none" stroke="#e2e8f0" stroke-opacity=".55" stroke-width="2.4" stroke-linecap="round"/>
<text x="372" y="236" text-anchor="middle" font-size="11" fill="#64748b">single chest X-ray</text>

<text x="24" y="252" font-size="12" fill="#64748b">CT-derived radiographs supervise view synthesis from one X-ray</text>
</g></svg>
